<?xml version="1.0" encoding="UTF-8"?>
<svg width="41px" height="43px" viewBox="0 0 41 43" version="1.1" xmlns="http://www.w3.org/2000/svg" xmlns:xlink="http://www.w3.org/1999/xlink">
    <title>icon/appapeh</title>
    <g id="icon/appapeh" stroke="none" stroke-width="1" fill="none" fill-rule="evenodd">
        <path d="M25.4388191,0.14997499 C26.1591629,0.265469507 26.8924551,0.383007223 27.6117153,0.498340434 C31.4077146,1.10694492 34.2921237,3.84488546 34.6929286,7.21992774 C34.7519279,7.7168015 34.8113064,8.21690136 34.8694931,8.70689276 C34.9142946,9.08410021 34.892895,9.46018205 34.8103303,9.82336484 C34.8829142,10.0334768 34.823694,10.2759455 34.6424352,10.4279116 C34.6273978,10.4405193 34.6116764,10.4533058 34.595278,10.4662609 C34.504957,10.6641566 34.396459,10.8552955 34.2696275,11.037531 L34.1487159,11.20137 L34.1487159,11.20137 C38.3520757,14.5375377 41,19.3894903 41,24.786547 C41,34.8388176 31.8142624,43 20.5,43 C9.18573758,43 0,34.8388176 0,24.786547 C0,18.8757871 3.17593806,13.6189047 8.09200261,10.2913399 L8.20740934,10.2917252 C7.29080807,10.2923685 6.40746253,10.2088945 5.80224559,9.96351397 C4.03958127,9.24882444 3.826122,7.88181671 3.82606782,7.88165541 C3.39421913,6.11746053 5.11289133,5.30109496 6.00291898,5.06693359 C7.62287981,4.64071151 8.86240638,4.95477272 9.80704492,5.08817211 L13.7069025,5.605908 L15.0667572,3.80187075 C17.4392974,0.933272998 21.4708604,-0.486158915 25.4388191,0.14997499 Z M10.3072722,33.206351 L10.3132897,33.2205412 C11.563158,36.1763727 13.4691539,38.7759305 15.8434514,40.8269726 C17.3340434,41.1612519 18.8946296,41.3386641 20.5,41.3386641 C21.5615615,41.3386641 22.6035406,41.2610888 23.6187735,41.1119267 C26.1349897,39.0307 28.15369,36.3458296 29.4627967,33.2737399 C26.6025451,33.6339032 23.4530128,33.8335099 20.1461127,33.8335099 C16.6367702,33.8335099 13.3046682,33.6088314 10.3072722,33.206351 Z M37.6883975,31.5525141 L37.4743994,31.621561 C35.3967781,32.2738561 32.896212,32.809596 30.1013367,33.1903777 C28.8830062,36.174888 27.0156741,38.8154747 24.6802196,40.9276457 C30.4842289,39.7692053 35.2936722,36.2483544 37.6883975,31.5525141 Z M3.44751168,31.8122211 L3.53532688,31.9750637 C5.75704147,36.0203496 9.79424063,39.1387861 14.6960657,40.5355443 C12.5390175,38.4742786 10.8115808,35.9494091 9.6672954,33.1169781 C7.35568775,32.7816026 5.25743557,32.3391991 3.44751168,31.8122211 Z M27.8615276,19.7564597 L27.8615276,21.5687772 C27.8615276,22.5722031 27.0406846,23.3868481 26.0296245,23.3868481 L26.0296245,23.3868481 L19.7338763,23.3868481 C18.7228161,23.3868481 17.9019731,22.5722031 17.9019731,21.5687772 L17.9019731,21.5687772 L17.9019731,19.9793834 C16.916268,19.9479827 15.9492542,19.9011504 15.0055367,19.8398007 L15.0055367,21.5687772 C15.0055367,22.5722031 14.1846937,23.3868481 13.1736335,23.3868481 L13.1736335,23.3868481 L8.72728774,23.3868481 C8.68513766,23.9309305 8.6636292,24.4813575 8.6636292,25.0368926 C8.6636292,27.7112958 9.16172423,30.2678275 10.0682788,32.6147448 C13.1213179,33.041554 16.5392079,33.2797492 20.1461127,33.2797492 C23.5485306,33.2797492 26.7827505,33.0679091 29.701849,32.6864155 C30.6268382,30.3194259 31.1350394,27.7382908 31.1350394,25.0368926 C31.1350394,23.1498984 30.8870712,21.3215765 30.4226255,19.58417 L30.402217,19.5137792 C29.5788324,19.6065534 28.7308703,19.6877221 27.8615276,19.7564597 Z M37.7817229,18.2067655 L37.5416731,18.2698371 C35.6387251,18.7516764 33.4166049,19.1520852 30.9634725,19.4482884 C31.4391758,21.2293048 31.6930132,23.1030397 31.6930132,25.0368926 C31.6930132,27.7009683 31.2112864,30.2509661 30.3321017,32.6009442 C33.2948735,32.1821308 35.9115409,31.5861742 38.0202648,30.8592466 C38.862587,28.9821209 39.3260242,26.9341946 39.3260242,24.786547 C39.3260242,22.4440883 38.7746958,20.2202599 37.7817229,18.2067655 Z M3.30176531,18.0391281 L3.24759761,18.1475592 C2.23618461,20.1765982 1.67397578,22.4210831 1.67397578,24.786547 C1.67397578,27.0379786 2.18328598,29.1798181 3.10445663,31.1306067 C4.92234508,31.6940873 7.06217192,32.1668115 9.4372547,32.5242046 C8.57693106,30.1953269 8.10565534,27.6719112 8.10565534,25.0368926 C8.10565534,24.4813575 8.12656784,23.9307692 8.16768855,23.3868481 L6.87788528,23.3868481 C5.86682515,23.3868481 5.04598215,22.5722031 5.04598215,21.5687772 L5.04598215,21.5687772 L5.04598215,18.4814497 C4.4351226,18.3417275 3.85287518,18.1940686 3.30176531,18.0391281 Z M13.1736335,17.4990473 L6.87788528,17.4990473 C6.63674132,17.4990473 6.44099808,17.6933663 6.44099808,17.9326356 L6.44099808,17.9326356 L6.44099808,21.5687772 C6.44099808,21.8081004 6.63674132,22.0023656 6.87788528,22.0023656 L6.87788528,22.0023656 L13.1736335,22.0023656 C13.4147775,22.0023656 13.6105207,21.8081004 13.6105207,21.5687772 L13.6105207,21.5687772 L13.6105207,17.9326356 C13.6105207,17.6933663 13.4147775,17.4990473 13.1736335,17.4990473 L13.1736335,17.4990473 Z M26.0296245,17.4990473 L19.7338763,17.4990473 C19.4927323,17.4990473 19.2969891,17.6933663 19.2969891,17.9326356 L19.2969891,17.9326356 L19.2969891,21.5687772 C19.2969891,21.8081004 19.4927323,22.0023656 19.7338763,22.0023656 L19.7338763,22.0023656 L26.0296245,22.0023656 C26.2707685,22.0023656 26.4665659,21.8081004 26.4665659,21.5687772 L26.4665659,21.5687772 L26.4665659,17.9326356 C26.4665659,17.6933663 26.2707685,17.4990473 26.0296245,17.4990473 L26.0296245,17.4990473 Z M15.1193094,9.90313206 C13.272074,11.6591541 11.7464362,13.7638105 10.6426784,16.1146186 L13.1736335,16.1146186 C14.1846937,16.1146186 15.0055367,16.9292636 15.0055367,17.9326356 L15.0055367,17.9326356 L15.0055367,19.2852872 C15.9489291,19.3469058 16.9159972,19.3939531 17.9019731,19.4254076 L17.9019731,17.9326356 C17.9019731,16.9292636 18.7228161,16.1146186 19.7338763,16.1146186 L19.7338763,16.1146186 L26.0296245,16.1146186 C27.0406846,16.1146186 27.8615276,16.9292636 27.8615276,17.9326356 L27.8615276,17.9326356 L27.8615276,19.2013547 C28.6773557,19.1364633 29.4740832,19.0605369 30.2490053,18.9742558 C29.623222,16.8881027 28.6829471,14.9430851 27.48494,13.1958549 L27.3503792,13.202343 C24.6081639,13.3266197 21.1991965,13.0079165 17.2167905,10.9122036 C16.2251121,10.3903363 15.5101782,10.0516637 14.9648425,9.84208703 L15.1193094,9.90313206 L15.1193094,9.90313206 Z M32.4257095,12.4770252 C32.0093555,12.735705 31.4918522,12.7889357 30.9519736,12.8504467 C30.1248776,12.9446574 29.1818934,13.075261 28.1291305,13.1549168 C29.2892129,14.9041654 30.2010102,16.8396268 30.8118147,18.9080072 C33.3231909,18.6092818 35.5917601,18.1992266 37.5217052,17.7032763 C36.3975248,15.6188609 34.7937269,13.7775496 32.8382168,12.285556 L32.8660036,12.2708168 C32.7235618,12.3473403 32.5765163,12.4161501 32.4257095,12.4770252 Z M12.4125883,9.83691714 C8.57302234,11.4452071 5.43895755,14.1671069 3.56828894,17.5383649 C4.03870186,17.6689462 4.53193932,17.7941313 5.0460905,17.9135478 L5.05205964,17.7836235 C5.12854199,16.8498357 5.91737815,16.1146186 6.87788528,16.1146186 L6.87788528,16.1146186 L10.0288475,16.1146186 C11.1304564,13.6926275 12.6670079,11.5172906 14.5355662,9.69382966 C13.5371582,9.38666272 13.2017308,9.62268514 12.4125883,9.83691714 Z M16.1616841,4.66044451 L14.8238796,6.43523176 C14.5210816,6.83693545 14.0229739,7.04464277 13.5219406,6.97813126 C13.5219406,6.97813126 12.7515983,6.87587307 11.8946447,6.76211123 L11.4621156,6.70469184 C10.523048,6.58002681 9.61607131,6.45961274 9.61048902,6.45883608 C8.80329875,6.34479331 7.74456243,6.0409481 6.36043617,6.40517522 C6.13039859,6.46566467 5.81351451,6.5836863 5.5354215,6.77961834 C5.35810201,6.90459792 5.18782171,7.07657159 5.16313922,7.32230433 C6.53376741,6.87131274 10.7353803,6.19065713 19.5559574,9.99593631 C24.1953917,11.9974649 28.8232863,11.4730079 31.6119095,10.6189507 C32.295068,10.4097075 32.8642327,10.1846201 33.2867383,9.97339219 C33.4561821,9.6305254 33.5296334,9.25210283 33.4841207,8.86895071 C33.4259341,8.37895931 33.3665556,7.87880568 33.3075563,7.38198569 C32.9753942,4.58527629 30.5347529,2.36937311 27.3892626,1.86507932 C26.6700023,1.74974611 25.9367101,1.63220839 25.2163664,1.51671387 C21.7590305,0.962415469 18.2368983,2.16752655 16.1616841,4.66044451 Z M11.8358206,8.55488808 C8.41395596,7.79472775 6.51911269,8.07878475 5.70235029,8.31058517 C5.86054966,8.44428064 6.06558426,8.57475365 6.32982589,8.68189046 C6.82614579,8.8830918 7.56474737,8.91330964 8.31846448,8.9067499 C9.66266194,8.89502839 11.0579488,8.69839736 11.6247536,8.59645248 Z" id="appapeh" fill="#555555"></path>
    </g>
</svg>