<?xml version="1.0" encoding="UTF-8"?>
<svg width="43px" height="29px" viewBox="0 0 43 29" version="1.1" xmlns="http://www.w3.org/2000/svg" xmlns:xlink="http://www.w3.org/1999/xlink">
    <title>icon/download</title>
    <defs>
        <path d="M12.3774067,3.46022622 C10.4251111,5.25572553 9.26191333,7.50223182 8.82398222,9.83143641 C3.82833778,10.5776633 0,14.535815 0,19.3333363 C0,24.6616453 4.71733889,29 10.5111111,29 L33.9222222,29 C38.93478,29 43,25.0476643 43,20.6515177 C43,16.2553711 39.2230721,12.0291792 34.3941243,11.8384603 C34.5338743,8.64109701 33.25663,5.89641882 30.6076389,3.46022622 C28.0933811,1.14789435 24.7989122,0 21.5,0 C18.2010878,0 14.8932889,1.14658935 12.3774067,3.46022622 Z M28.4359756,5.66433098 C30.656128,7.72698613 31.3036168,10.9246393 30.9575863,13.607751 C30.9268334,13.8346631 31.0030004,14.0628644 31.1665432,14.2338004 C31.3300861,14.4047364 31.5650864,14.5017688 31.8112449,14.5 L32.3181046,14.5 C35.8798241,14.5 39.6649117,16.6943324 39.6649117,20.0033967 C39.6649117,23.3124611 37.5554199,26 32.597561,26 L11.6829268,26 C6.39526367,26 3.40820312,22.813589 3.40820312,18.8620714 C3.40820312,15.1307986 7.23809541,12.5496818 11.1543393,12.2193543 C11.5563104,12.1869282 11.8789663,11.8974811 11.9279247,11.5253891 C12.1742052,9.55442457 12.9207744,7.17859494 14.5507073,5.66433098 C16.4703293,3.88084814 18.9853354,3 21.5,3 C24.0146646,3 26.5150732,3.87967039 28.4359756,5.66433098 Z" id="path-1"></path>
    </defs>
    <g id="icon/download" stroke="none" stroke-width="1" fill="none" fill-rule="evenodd">
        <g id="color/default">
            <mask id="mask-2" fill="white">
                <use xlink:href="#path-1"></use>
            </mask>
            <use id="Mask" fill="#555555" fill-rule="nonzero" xlink:href="#path-1"></use>
        </g>
        <path d="M21.3612016,8.05166721 C20.6295335,8.11748806 20.0444444,8.69831597 20.0444444,9.42423896 L20.044,17.8 L17.2074212,15.4258076 C16.6377451,14.9475137 15.6920847,14.9846339 15.1715028,15.5133245 C14.6224946,16.0710348 14.670139,17.0078316 15.2899416,17.5039797 L20.5372541,21.891174 C20.7732375,22.0899787 21.1388706,22.2211393 21.4914047,22.2272005 C21.8869482,22.2272005 22.1707655,22.1363408 22.4635583,21.8904933 L27.7183015,17.4972359 C28.3267229,16.9951274 28.4006951,16.0395643 27.8109684,15.4963703 L27.6979023,15.4026884 C27.1490215,14.994015 26.3168554,14.9856306 25.7920143,15.4262808 L22.955,17.8 L22.9555556,9.42423896 C22.9555556,8.65294578 22.2950449,8.04545135 21.5,8.04545135 L21.3612016,8.05166721 Z" id="Path" fill="#555555" fill-rule="nonzero"></path>
    </g>
</svg>