<?xml version="1.0" encoding="UTF-8"?>
<svg width="43px" height="44px" viewBox="0 0 43 44" version="1.1" xmlns="http://www.w3.org/2000/svg" xmlns:xlink="http://www.w3.org/1999/xlink">
    <title>icon/download</title>
    <g id="icon/download" stroke="none" stroke-width="1" fill="none" fill-rule="evenodd">
        <path d="M21.5,8 C24.7989122,8 28.0933811,9.14789435 30.6076389,11.4602262 C33.25663,13.8964188 34.5338743,16.641097 34.3941243,19.8384603 C39.2230721,20.0291792 43,24.2553711 43,28.6515177 C43,33.0476643 38.93478,37 33.9222222,37 L33.9222222,37 L10.5111111,37 C4.71733889,37 0,32.6616453 0,27.3333363 C0,22.535815 3.82833778,18.5776633 8.82398222,17.8314364 C9.26191333,15.5022318 10.4251111,13.2557255 12.3774067,11.4602262 C14.8932889,9.14658935 18.2010878,8 21.5,8 Z M21.5,11 C18.9853354,11 16.4703293,11.8808481 14.5507073,13.664331 C12.9207744,15.1785949 12.1742052,17.5544246 11.9279247,19.5253891 C11.8789663,19.8974811 11.5563104,20.1869282 11.1543393,20.2193543 C7.23809541,20.5496818 3.40820313,23.1307986 3.40820313,26.8620714 C3.40820313,30.813589 6.39526367,34 11.6829268,34 L11.6829268,34 L32.597561,34 C37.5554199,34 39.6649117,31.3124611 39.6649117,28.0033967 C39.6649117,24.6943324 35.8798241,22.5 32.3181046,22.5 L32.3181046,22.5 L31.8112449,22.5 C31.5650864,22.5017688 31.3300861,22.4047364 31.1665432,22.2338004 C31.0030004,22.0628644 30.9268334,21.8346631 30.9575863,21.607751 C31.3036168,18.9246393 30.656128,15.7269861 28.4359756,13.664331 C26.5150732,11.8796704 24.0146646,11 21.5,11 Z" id="Combined-Shape" fill="#555555" fill-rule="nonzero"></path>
        <path d="M21.3612016,16.0516672 C20.6295335,16.1174881 20.0444444,16.698316 20.0444444,17.424239 L20.044,25.8 L17.2074212,23.4258076 C16.6377451,22.9475137 15.6920847,22.9846339 15.1715028,23.5133245 C14.6224946,24.0710348 14.670139,25.0078316 15.2899416,25.5039797 L20.5372541,29.891174 C20.7732375,30.0899787 21.1388706,30.2211393 21.4914047,30.2272005 C21.8869482,30.2272005 22.1707655,30.1363408 22.4635583,29.8904933 L27.7183015,25.4972359 C28.3267229,24.9951274 28.4006951,24.0395643 27.8109684,23.4963703 L27.6979023,23.4026884 C27.1490215,22.994015 26.3168554,22.9856306 25.7920143,23.4262808 L22.955,25.8 L22.9555556,17.424239 C22.9555556,16.6529458 22.2950449,16.0454513 21.5,16.0454513 L21.3612016,16.0516672 Z" id="Path" fill="#555555" fill-rule="nonzero"></path>
    </g>
</svg>