<?xml version="1.0" encoding="UTF-8"?>
<svg width="45px" height="29px" viewBox="0 0 45 29" version="1.1" xmlns="http://www.w3.org/2000/svg" xmlns:xlink="http://www.w3.org/1999/xlink">
    <title>icon/download</title>
    <defs>
        <path d="M21.5,0 C18.2010878,0 14.8932889,1.14658935 12.3774067,3.46022622 C10.4251111,5.25572553 9.26191333,7.50223182 8.82398222,9.83143641 C3.82833778,10.5776633 0,14.535815 0,19.3333363 C0,24.6616453 4.71733889,29 10.5111111,29 L33.9222222,29 C38.93478,29 43,25.2613739 43,20.6515177 C43,16.1636812 39.1393644,12.5349386 34.3104167,12.3442197 C34.4501667,9.14685647 33.25663,5.89641882 30.6076389,3.46022622 C28.0933811,1.14789435 24.7989122,0 21.5,0 L21.5,0 Z M21.5,1.75757522 C24.3148278,1.75757522 27.1136978,2.73228251 29.2638889,4.70975236 C31.74905,6.99525046 32.78664,10.0989789 32.3993056,13.0719657 C32.3648819,13.3233927 32.4501404,13.5762482 32.6332046,13.7656516 C32.8162688,13.955055 33.0793199,14.0625705 33.3548611,14.0606106 L33.9222222,14.0606106 C37.9090867,14.0606106 41.0888889,16.9849521 41.0888889,20.6515177 C41.0888889,24.3180832 37.9090867,27.2424248 33.9222222,27.2424248 L10.5111111,27.2424248 C5.75019889,27.2424248 1.91111111,23.7117637 1.91111111,19.3333363 C1.91111111,15.1989481 5.33610889,11.8177161 9.71981556,11.4517011 C10.169768,11.4157717 10.5309377,11.0950536 10.58574,10.6827619 C10.8614178,8.49886045 11.8967144,6.38761276 13.7212044,4.70975236 C15.8699622,2.7335875 18.6851722,1.75757522 21.5,1.75757522 L21.5,1.75757522 Z M21.5,10.5454513 C20.9721511,10.5454513 20.5444444,10.9388977 20.5444444,11.424239 L20.5444444,20.8712146 L16.8864822,17.809211 C16.5155356,17.4977686 15.8649456,17.5217156 15.5277778,17.8641352 C15.1906578,18.2065987 15.2097211,18.799297 15.6024067,19.1136394 L20.8579622,23.5075774 C20.9945111,23.6226107 21.2444367,23.7228804 21.5,23.7272743 C21.7536044,23.7272743 21.9316722,23.6842137 22.1420378,23.5075774 L27.3975933,19.1136394 C27.7714544,18.805097 27.8401589,18.2030396 27.4722222,17.8641352 C27.1173289,17.5371823 26.4844644,17.4977686 26.1135178,17.809211 L22.4555556,20.8712146 L22.4555556,11.424239 C22.4555556,10.9388977 22.0278489,10.5454513 21.5,10.5454513 Z" id="path-1"></path>
    </defs>
    <g id="icon/download" stroke="none" stroke-width="1" fill="none" fill-rule="evenodd">
        <g id="color/default" transform="translate(1.000000, 0.000000)">
            <mask id="mask-2" fill="white">
                <use xlink:href="#path-1"></use>
            </mask>
            <use id="Mask" fill="#555555" fill-rule="nonzero" xlink:href="#path-1"></use>
        </g>
    </g>
</svg>