<?xml version="1.0" encoding="UTF-8"?>
<svg width="28px" height="25px" viewBox="0 0 28 25" version="1.1" xmlns="http://www.w3.org/2000/svg" xmlns:xlink="http://www.w3.org/1999/xlink">
    <title>icon/face</title>
    <defs>
        <path d="M22.1334188,20.0322324 C22.629543,20.8266514 22.4132373,21.8894316 21.6502865,22.4060186 C16.9080165,25.6169662 12.3050691,25.6169662 8.35231033,23.6611908 C7.34901176,23.1647712 6.61811467,22.656524 6.18976686,22.2829352 C5.49210049,21.674457 5.40026005,20.5922905 5.9846355,19.8658486 C6.52405899,19.1952869 7.45111071,19.062223 8.13927569,19.5243041 L8.52743445,19.8272055 C8.79904118,20.0261659 9.21886342,20.2906226 9.76679529,20.5617324 C12.7495341,22.037554 16.1490175,22.037554 19.853662,19.5291732 C20.6166128,19.0125862 21.6372947,19.2378135 22.1334188,20.0322324 Z M9.13840826,5.74840322 C9.99573727,5.74840322 10.7023345,6.49165591 10.7989028,7.44919432 L10.8101499,7.67372784 L10.8101499,8.65975076 C10.8101499,10.1248372 11.7808249,11.3289335 13.0218835,11.4655224 L13.4565521,11.4913791 C14.2879739,11.6025957 14.9333333,12.4163752 14.9333333,13.4037506 C14.9333333,14.3911261 14.2879739,15.2049056 13.4565521,15.3161222 L13.2615917,15.3290753 C10.1661361,15.3290753 7.64019249,12.5388098 7.47523564,9.0256726 L7.46666667,8.65975076 L7.46666667,7.67372784 C7.46666667,6.61040042 8.21513087,5.74840322 9.13840826,5.74840322 Z M2.79989457,0 C4.34534021,0 5.6,1.28790899 5.6,2.87409338 C5.6,4.46049423 4.34534021,5.74840322 2.79989457,5.74840322 C1.25465979,5.74840322 0,4.46049423 0,2.87409338 C0,1.28790899 1.25465979,0 2.79989457,0 Z M25.2001054,0 C26.7453402,0 28,1.28790899 28,2.87409338 C28,4.46049423 26.7453402,5.74840322 25.2001054,5.74840322 C23.6546598,5.74840322 22.4,4.46049423 22.4,2.87409338 C22.4,1.28790899 23.6546598,0 25.2001054,0 Z" id="path-1"></path>
    </defs>
    <g id="icon/face" stroke="none" stroke-width="1" fill="none" fill-rule="evenodd">
        <mask id="mask-2" fill="white">
            <use xlink:href="#path-1"></use>
        </mask>
        <use id="Mask" fill="#555555" xlink:href="#path-1"></use>
    </g>
</svg>