<?xml version="1.0" encoding="UTF-8"?>
<svg width="42px" height="42px" viewBox="0 0 42 42" version="1.1" xmlns="http://www.w3.org/2000/svg" xmlns:xlink="http://www.w3.org/1999/xlink">
    <title>icon/fence</title>
    <defs>
        <path d="M41.4755141,5.6427 L37.0985349,5.6427 C37.8188438,5.060475 38.2808495,4.1706 38.2808495,3.174675 C38.2808495,1.424325 36.8565069,0 35.1061352,0 C33.3557635,0 31.9314208,1.424325 31.9314208,3.174675 C31.9314208,4.1706 32.3934266,5.060475 33.1137355,5.6427 L8.98391136,5.6427 C9.70422029,5.060475 10.166226,4.1706 10.166226,3.174675 C10.166226,1.424325 8.74188336,0 6.99151167,0 C5.24113997,0 3.81732232,1.424325 3.81732232,3.174675 C3.81732232,4.1706 4.27932805,5.060475 4.99963698,5.6427 L0.525006508,5.6427 C0.234677909,5.6427 0,5.877375 0,6.1677 L0,14.12145 C0,14.411775 0.234677909,14.64645 0.525006508,14.64645 L4.01839981,14.64645 L4.01839981,41.475 C4.01839981,41.765325 4.25307772,42 4.54340632,42 L9.48791761,42 C9.77824621,42 10.0129241,41.765325 10.0129241,41.475 L10.0129241,28.63875 L31.9870715,28.63875 L31.9870715,41.474475 C31.9870715,41.7648 32.2217494,41.999475 32.512078,41.999475 L37.4565893,41.999475 C37.7469179,41.999475 37.9815958,41.7648 37.9815958,41.474475 L37.9815958,14.64645 L41.4749891,14.64645 C41.7653177,14.64645 42,14.411775 42,14.12145 L42,6.1677 C42.0005206,5.877375 41.7658427,5.6427 41.4755141,5.6427 Z M35.1061352,1.05 C36.2774247,1.05 37.2308365,2.002875 37.2308365,3.174675 C37.2308365,4.346475 36.2779497,5.29935 35.1061352,5.29935 C33.9343207,5.29935 32.9814338,4.346475 32.9814338,3.174675 C32.9814338,2.002875 33.9348457,1.05 35.1061352,1.05 Z M6.99151167,1.05 C8.16280119,1.05 9.116213,2.002875 9.116213,3.174675 C9.116213,4.346475 8.16332619,5.29935 6.99151167,5.29935 C5.82074715,5.29935 4.86733534,4.346475 4.86733534,3.174675 C4.86733534,2.002875 5.82074715,1.05 6.99151167,1.05 Z M40.9505076,12.573225 L35.7104177,6.6927 L40.9505076,6.6927 L40.9505076,12.573225 Z M35.0373593,13.59645 L28.8848081,6.6927 L34.3039252,6.6927 L40.4564765,13.59645 L35.0373593,13.59645 Z M28.2122747,13.59645 L22.0597235,6.6927 L27.4793656,6.6927 L33.6319169,13.59645 L28.2122747,13.59645 Z M7.73702091,13.59645 L1.58446964,6.6927 L7.00411182,6.6927 L13.1566631,13.59645 L7.73702091,13.59645 Z M14.5621055,13.59645 L8.40955425,6.6927 L13.8291964,6.6927 L19.9817477,13.59645 L14.5621055,13.59645 Z M21.3871901,13.59645 L15.2346388,6.6927 L20.654281,6.6927 L26.8068323,13.59645 L21.3871901,13.59645 Z M1.05001302,7.67025 L6.33105348,13.59645 L1.05001302,13.59645 L1.05001302,7.67025 Z M5.06841283,40.95 L5.06841283,14.64645 L8.9629111,14.64645 L8.9629111,40.95 L5.06841283,40.95 Z M10.0129241,27.58875 L10.0129241,14.64645 L31.9870715,14.64645 L31.9870715,27.58875 L10.0129241,27.58875 Z M36.9321078,40.95 L33.0376095,40.95 L33.0376095,14.64645 L36.9321078,14.64645 L36.9321078,40.95 Z" id="path-1"></path>
    </defs>
    <g id="icon/fence" stroke="none" stroke-width="1" fill="none" fill-rule="evenodd">
        <mask id="mask-2" fill="white">
            <use xlink:href="#path-1"></use>
        </mask>
        <use id="Mask" fill="#555555" fill-rule="nonzero" xlink:href="#path-1"></use>
    </g>
</svg>