<?xml version="1.0" encoding="UTF-8"?>
<svg width="43px" height="43px" viewBox="0 0 43 43" version="1.1" xmlns="http://www.w3.org/2000/svg" xmlns:xlink="http://www.w3.org/1999/xlink">
    <title>icon/kanban</title>
    <defs>
        <path d="M21.4713928,3.52681883 C23.4652344,3.52681883 25.0871826,5.14876711 25.0871826,7.14287109 L25.0871826,7.14287109 L25.0871826,7.63208005 L32.1731018,7.63208005 L32.1731018,6.30565185 C32.1731018,4.90311279 33.2677856,3.7625 34.6133728,3.7625 L34.6133728,3.7625 L34.9298889,3.7625 C36.2754761,3.7625 37.3701599,4.90311279 37.3701599,6.3056519 L37.3701599,6.3056519 L37.3701599,7.6320801 L40.6870178,7.6320801 C41.9625305,7.6320801 43,8.669812 43,9.94479979 L43,9.94479979 L43,29.2827271 C43,30.5577148 41.9625305,31.5954468 40.6870178,31.5954468 L40.6870178,31.5954468 L37.3701599,31.5954468 L37.3701599,41.925 L42.4625,41.925 C42.7593323,41.925 43,42.1654053 43,42.4625 C43,42.7595947 42.7593323,43 42.4625,43 L42.4625,43 L0.5375,43 C0.240667721,43 0,42.7595947 0,42.4625 C0,42.1654053 0.240667721,41.925 0.5375,41.925 L0.5375,41.925 L5.62984009,41.925 L5.62984009,31.5954468 L2.3129822,31.5954468 C1.03746949,31.5954468 0,30.5577148 0,29.2827271 L0,29.2827271 L0,9.94479979 C0,8.669812 1.03746949,7.6320801 2.3129822,7.63208005 L2.3129822,7.63208005 L5.62984009,7.63208005 L5.62984009,6.30565185 C5.62984009,4.90311279 6.72452393,3.7625 8.07011111,3.7625 L8.07011111,3.7625 L8.38636477,3.7625 C9.73195189,3.7625 10.8266357,4.90311279 10.8266357,6.30565185 L10.8266357,6.30565185 L10.8266357,7.63208005 L17.855603,7.63208005 L17.855603,7.14287109 C17.855603,5.14876706 19.4775512,3.52681883 21.4713928,3.52681883 Z M9.75163573,31.5954468 L6.70484009,31.5954468 L6.70484009,41.925 L9.75163573,41.925 L9.75163573,31.5954468 Z M32.1731018,31.5954468 L10.8266357,31.5954468 L10.8266357,41.925 L32.1731018,41.925 L32.1731018,31.5954468 Z M36.2951599,31.5954468 L33.2481018,31.5954468 L33.2481018,41.925 L36.2951599,41.925 L36.2951599,31.5954468 Z M40.6870179,8.70708005 L2.3129822,8.70708005 C1.63034667,8.70708005 1.075,9.26242677 1.075,9.94479979 L1.075,9.94479979 L1.075,29.2827271 C1.075,29.9651001 1.63034667,30.5204468 2.3129822,30.5204468 L2.3129822,30.5204468 L40.6870178,30.5204468 C41.3696533,30.5204468 41.925,29.9651001 41.925,29.2827271 L41.925,29.2827271 L41.925,9.94479979 C41.925,9.26242677 41.3696533,8.70708005 40.6870179,8.70708005 L40.6870179,8.70708005 Z M34.9298889,4.8375 L34.6133728,4.8375 C33.8606628,4.8375 33.2481018,5.49625242 33.2481018,6.30565185 L33.2481018,6.30565185 L33.2481018,7.63208005 L36.29516,7.63208005 L36.29516,6.30565185 C36.29516,5.49625242 35.6825989,4.8375 34.9298889,4.8375 L34.9298889,4.8375 Z M21.4713929,4.60181883 C20.0704285,4.60181883 18.930603,5.74190674 18.930603,7.14287109 L18.930603,7.14287109 L18.930603,7.63208005 L24.0121827,7.63208005 L24.0121827,7.14287109 C24.0121827,5.74190674 22.8723572,4.60181883 21.4713929,4.60181883 Z M8.38636477,4.8375 L8.07011111,4.8375 C7.31740111,4.8375 6.70484009,5.49625242 6.70484009,6.30565185 L6.70484009,6.30565185 L6.70484009,7.63208005 L9.75163578,7.63208005 L9.75163578,6.30565185 C9.75163578,5.49625242 9.13907471,4.8375 8.38636477,4.8375 L8.38636477,4.8375 Z M24.6688355,1.5453125 C24.8787964,1.33535156 25.2189332,1.33535156 25.4288941,1.5453125 C25.638855,1.75527344 25.638855,2.09541016 25.4288941,2.30537109 L25.4288941,2.30537109 L24.5940369,3.13996583 C24.4890564,3.2449463 24.3515319,3.29743656 24.2140076,3.29743656 C24.0764832,3.29743656 23.9389588,3.2449463 23.8339783,3.13996583 C23.6240174,2.9300049 23.6240174,2.58986818 23.8339783,2.37990724 L23.8339783,2.37990724 Z M17.571106,1.5453125 C17.7810669,1.33535156 18.1212036,1.33535156 18.3311646,1.5453125 L18.3311646,1.5453125 L19.0397827,2.25393068 C19.2497436,2.46389162 19.2497436,2.80402833 19.0397827,3.01398927 C18.9348023,3.11896979 18.7972778,3.17146 18.6597534,3.17146 C18.522229,3.17146 18.3847046,3.11896974 18.2797241,3.01398927 L18.2797241,3.01398927 L17.571106,2.30537109 C17.361145,2.09541016 17.361145,1.75527344 17.571106,1.5453125 Z M21.4629944,-1.13242749e-14 C21.7598266,-1.13242749e-14 22.0004944,0.24040526 22.0004944,0.5375 L22.0004944,0.5375 L22.0004944,1.75947266 C22.0004944,2.0565674 21.7598266,2.29697266 21.4629944,2.29697266 C21.1661621,2.29697266 20.9254944,2.0565674 20.9254944,1.75947266 L20.9254944,1.75947266 L20.9254944,0.5375 C20.9254944,0.24040526 21.1661621,-1.13242749e-14 21.4629944,-1.13242749e-14 Z" id="path-1"></path>
    </defs>
    <g id="icon/kanban" stroke="none" stroke-width="1" fill="none" fill-rule="evenodd">
        <mask id="mask-2" fill="white">
            <use xlink:href="#path-1"></use>
        </mask>
        <use id="Mask" fill="#555555" fill-rule="nonzero" xlink:href="#path-1"></use>
    </g>
</svg>