<?xml version="1.0" encoding="UTF-8"?>
<svg width="43px" height="37px" viewBox="0 0 43 37" version="1.1" xmlns="http://www.w3.org/2000/svg" xmlns:xlink="http://www.w3.org/1999/xlink">
    <title>icon/rotate-clockwise</title>
    <g id="icon/rotate-clockwise" stroke="none" stroke-width="1" fill="none" fill-rule="evenodd">
        <path d="M37.6863684,5.25804029 C44.8967621,12.3929987 44.7506326,24.1056527 37.3599791,31.4189851 C29.9693255,38.7323175 18.132838,38.8769182 10.9224443,31.7419597 C7.62607212,28.4800743 5.86724244,24.2614323 5.6352537,19.94379 L3.15189408,22.4009898 C2.4308547,23.1144857 1.2618189,23.1144857 0.540779529,22.4009898 C-0.147485326,21.7199256 -0.178770092,20.6349368 0.446925231,19.9171522 L0.540779529,19.8171928 L6.41578726,14.0036495 C6.6913782,13.7309418 7.03241564,13.5624667 7.38887052,13.4982241 C8.2332174,13.1352128 9.25264814,13.2949524 9.94327633,13.9783552 C10.0011375,14.0356111 10.0552841,14.0951507 10.1057162,14.1566808 L10.1686494,14.2084575 L10.2696656,14.3013298 L16.1446734,20.1148731 C16.8657127,20.828369 16.8657127,21.9851743 16.1446734,22.6986702 C15.4564085,23.3797344 14.3599486,23.4106918 13.6345751,22.7915425 L13.5335588,22.6986702 L10.1789866,19.3808253 C10.3074232,22.718609 11.6403318,25.9928442 14.1863375,28.5122134 C19.6380986,33.9069381 28.5876379,33.7976059 34.175693,28.2680131 C39.7637482,22.7384203 39.8742363,13.8825112 34.4224752,8.48778656 C31.1909455,5.29006518 26.7304637,4.02620627 22.4695667,4.67875808 C21.5950357,5.15272401 20.4758119,5.02222158 19.7349559,4.28911641 C18.8336567,3.3972466 18.8336567,1.95123994 19.7349559,1.05937014 C20.235608,0.563955849 20.9090502,0.343733428 21.5633201,0.398702874 L21.5477808,0.273766349 C27.2819854,-0.707082799 33.3289289,0.94618837 37.6863684,5.25804029 Z" id="Path-rotate-clockwise" fill="#555555"></path>
    </g>
</svg>