<?xml version="1.0" encoding="UTF-8"?>
<svg width="37px" height="44px" viewBox="0 0 37 44" version="1.1" xmlns="http://www.w3.org/2000/svg" xmlns:xlink="http://www.w3.org/1999/xlink">
    <title>icon/trash-bin</title>
    <g id="icon/trash-bin" stroke="none" stroke-width="1" fill="none" fill-rule="evenodd">
        <g id="Group" fill="#555555" fill-rule="nonzero">
            <path d="M1.32342149,10.2777778 L35.665392,10.2777778 C37.0121359,10.2777778 37.4931159,8.61111111 36.386862,7.91666667 C33.5971781,6.2037037 29.4607503,5.23148148 24.6509505,4.81481481 C24.0256765,2.08333333 21.5245806,0 18.4944067,0 C15.4642329,0 12.963137,2.08333333 12.385961,4.81481481 C7.52806322,5.23148148 3.3916354,6.25 0.650049522,7.91666667 C-0.504302428,8.61111111 -0.0233224487,10.2777778 1.32342149,10.2777778 Z M18.4944067,2.5 C19.9854447,2.5 21.2359926,3.37962963 21.8131686,4.58333333 C20.7069146,4.53703704 19.6006607,4.49074074 18.4944067,4.49074074 C17.3881528,4.49074074 16.2338008,4.53703704 15.1756449,4.58333333 C15.7528209,3.37962963 17.0033688,2.5 18.4944067,2.5 Z" id="Shape"></path>
            <path d="M35.0298701,11 L1.97012987,11 C0.864935065,11 0,11.8658892 0,12.9723032 C0,14.0787172 0.864935065,14.9446064 1.97012987,14.9446064 L3.12337662,14.9446064 L6.34285714,40.5845481 C6.58311688,42.5568513 8.26493506,44 10.2350649,44 L26.812987,44 C28.7831169,44 30.4649351,42.5087464 30.7051948,40.5845481 L33.8766234,14.8965015 L35.0298701,14.8965015 C36.1350649,14.8965015 37,14.0306122 37,12.9241983 C37,11.8177843 36.1350649,11 35.0298701,11 Z M12.3493506,38.2274052 C12.3012987,38.2274052 12.3012987,38.2274052 12.2532468,38.2274052 C11.6285714,38.2274052 11.1480519,37.7463557 11.1,37.1690962 L9.65844156,19.6588921 C9.61038961,19.0335277 10.0909091,18.4562682 10.7155844,18.4081633 C11.3402597,18.3600583 11.9168831,18.8411079 11.9649351,19.4664723 L13.4064935,36.9766764 C13.5025974,37.6020408 13.0220779,38.1793003 12.3493506,38.2274052 Z M19.6532468,37.0728863 C19.6532468,37.7463557 19.1246753,38.2274052 18.5,38.2274052 C17.8753247,38.2274052 17.3467532,37.6982507 17.3467532,37.0728863 L17.3467532,19.5626822 C17.3467532,18.8892128 17.8753247,18.4081633 18.5,18.4081633 C19.1246753,18.4081633 19.6532468,18.9373178 19.6532468,19.5626822 L19.6532468,37.0728863 Z M25.9,37.1690962 C25.8519481,37.7944606 25.3233766,38.2274052 24.7467532,38.2274052 C24.6987013,38.2274052 24.6987013,38.2274052 24.6506494,38.2274052 C24.025974,38.1793003 23.5454545,37.6020408 23.5935065,36.9766764 L25.0350649,19.4664723 C25.0831169,18.8411079 25.6597403,18.3600583 26.2844156,18.4081633 C26.9090909,18.4562682 27.3896104,19.0335277 27.3415584,19.6588921 L25.9,37.1690962 Z" id="Shape"></path>
        </g>
    </g>
</svg>