<?xml version="1.0" encoding="UTF-8"?>
<svg width="32px" height="43px" viewBox="0 0 32 43" version="1.1" xmlns="http://www.w3.org/2000/svg" xmlns:xlink="http://www.w3.org/1999/xlink">
    <title>icon/worker</title>
    <defs>
        <path d="M21.7707062,39.4633378 C22.130292,40.028902 21.9735158,40.7855184 21.4205368,41.153288 C17.9833873,43.4392317 14.6472175,43.4392317 11.7822978,42.0468725 C11.0551171,41.6934606 10.5253702,41.3316282 10.2149081,41.0656622 C9.7092465,40.6324733 9.64268148,39.8620553 10.0662309,39.3448855 C10.4571996,38.867498 11.1291174,38.7727669 11.6278924,39.1017325 L11.909226,39.3173746 C12.1060838,39.4590189 12.4103667,39.6472914 12.8075022,39.8403003 C14.9693612,40.89097 17.4332725,40.89097 20.1183615,39.1051989 C20.6713405,38.7374294 21.4111204,38.8977736 21.7707062,39.4633378 Z M7.7579628,26.6303448 C8.87808622,26.6303448 9.78745098,27.5472354 9.78745098,28.6764747 C9.78745098,29.8058681 8.87808622,30.7227586 7.7579628,30.7227586 C6.63799221,30.7227586 5.72862745,29.8058681 5.72862745,28.6764747 C5.72862745,27.5472354 6.63799221,26.6303448 7.7579628,26.6303448 Z M23.9934098,26.6303448 C25.1133803,26.6303448 26.0227451,27.5472354 26.0227451,28.6764747 C26.0227451,29.8058681 25.1133803,30.7227586 23.9934098,30.7227586 C22.8732863,30.7227586 21.9639216,29.8058681 21.9639216,28.6764747 C21.9639216,27.5472354 22.8732863,26.6303448 23.9934098,26.6303448 Z M18.1161947,8.8817842e-15 C19.0752554,8.8817842e-15 19.8693835,0.745057457 19.94284,1.7117473 L19.9483839,1.85834759 L19.9477208,2.69448489 L19.9998946,2.7079963 C25.9744744,4.34548827 30.1770784,9.64110977 30.5628794,15.9485673 L30.5796494,16.2814588 L30.5824509,16.3930468 L30.6832997,16.4460987 C31.3749502,16.8427183 31.864311,17.5525346 31.9758442,18.3536182 L31.9938971,18.5265951 L32,18.7018805 L32,21.6454022 C32,23.0082433 30.9645563,24.1108301 29.6425223,24.1936285 L29.4825506,24.1986207 L2.51744945,24.1986207 C1.20000906,24.1986207 0.0885843513,23.1364265 0.00503901954,21.8062579 L0,21.6454022 L0,18.7018805 C0,17.7808746 0.4398239,16.9901657 1.16333326,16.5292474 L1.31177134,16.4415201 L1.41700818,16.3872975 L1.42037607,16.2798837 C1.67269849,9.90457689 5.80848873,4.48261485 11.7321079,2.71454982 L12.0914166,2.61207888 L12.0920057,1.85834759 C12.0920057,0.945872095 12.7778728,0.163310353 13.6449471,0.0225273951 L13.7832858,0.00570647556 L13.9241949,8.8817842e-15 L18.1161947,8.8817842e-15 Z M20.8896081,17.656925 L20.8109959,17.8475836 C19.9661995,19.7626113 18.1394384,21.00982 16.0201948,21.00982 C13.8870534,21.00982 12.0289328,19.7480439 11.2188459,17.8397077 L11.1457504,17.656925 L2.51744945,17.6574999 C1.97837316,17.6574999 1.54875558,18.0568686 1.49386913,18.5864938 L1.4879401,18.7018805 L1.4879401,21.6454022 C1.4879401,22.1921195 1.88163625,22.6279188 2.40370856,22.6835955 L2.51744945,22.6896099 L29.5229402,22.6896099 C30.0619983,22.6896099 30.4916316,22.2902585 30.5465203,21.7607601 L30.5524495,21.6454022 L30.5524495,18.7018805 C30.5524495,18.1550203 30.1587704,17.7191943 29.6366845,17.6635146 L29.5229402,17.6574999 L20.8896081,17.656925 Z M16.0201948,11.8931826 C13.9512184,11.8931826 12.2900341,13.5780837 12.2900341,15.6765992 C12.2900341,17.7750039 13.9512795,19.4600158 16.0201948,19.4600158 C18.0891101,19.4600158 19.7503555,17.7750039 19.7503555,15.6765992 C19.7503555,13.5780837 18.0891713,11.8931826 16.0201948,11.8931826 Z M12.0517383,4.19504084 L11.8928393,4.24460166 C6.86899251,5.84396426 3.35823504,10.4178037 2.96966395,15.8705311 L2.95218065,16.1477451 L10.8302134,16.1477451 L10.8101603,15.9373537 L10.8022645,15.7173926 C10.8022645,14.4862802 11.2307989,13.2923159 11.9755232,12.3679415 L12.0517383,12.2775373 L12.0517383,4.19504084 Z M20.0289668,4.23720205 L20.0289668,12.2372925 L20.1052905,12.3270885 C20.7967662,13.1856742 21.2156794,14.2764769 21.2719962,15.4134787 L21.2785148,15.6765992 C21.2785148,15.7705128 21.2738176,15.8681149 21.2646054,15.973235 L21.249547,16.1075003 L29.1247456,16.1075003 L29.1069812,15.8365231 C28.6848054,10.4231695 25.175879,5.88278409 20.1835884,4.2851797 L20.0289668,4.23720205 Z M18.1564139,1.50918359 L13.9241949,1.50918359 C13.7393317,1.50918359 13.5834901,1.63862337 13.5474181,1.79163611 L13.5395562,1.85834759 L13.53873,11.0127009 L13.6920906,10.9318434 C14.3279487,10.6131918 15.0229171,10.4283038 15.7472511,10.3911515 L16.0201948,10.3841718 C16.8428068,10.3841718 17.6329587,10.5733603 18.348299,10.9318434 L18.5004074,11.0127009 L18.5008335,1.85834759 C18.5008335,1.70354428 18.370792,1.55231808 18.2213337,1.51693033 L18.1564139,1.50918359 Z M12.3520536,30.7227586 C12.973437,30.7227586 13.4855716,31.2518964 13.5555633,31.9335889 L13.5637151,32.0934393 L13.5637151,32.7954105 C13.5637151,33.8384375 14.2672505,34.69566 15.1667573,34.7929006 L15.4818007,34.8113086 C16.0844068,34.8904861 16.5521569,35.4698335 16.5521569,36.1727676 C16.5521569,36.8757018 16.0844068,37.4550492 15.4818007,37.5342267 L15.3404954,37.5434483 C13.0969403,37.5434483 11.2661619,35.5569974 11.1466029,33.0559183 L11.1403922,32.7954105 L11.1403922,32.0934393 C11.1403922,31.3364332 11.6828715,30.7227586 12.3520536,30.7227586 Z" id="path-1"></path>
    </defs>
    <g id="icon/worker" stroke="none" stroke-width="1" fill="none" fill-rule="evenodd">
        <mask id="mask-2" fill="white">
            <use xlink:href="#path-1"></use>
        </mask>
        <use id="worker" fill="#555555" xlink:href="#path-1"></use>
    </g>
</svg>